PathFileType   4   (X/Y/Z)
DataRate	CameraRate	NumFrames	NumMarkers	Units	OrigDataRate	OrigDataStartFrame	OrigNumFrames
120.0	120.0	4	37	mm	120.0	1	108
Frame#	Time	midhip	hip_r	hip_l	knee_r	knee_l	ankle_r	ankle_l	midasis	asis_r	asis_l	psis_r	psis_l	epicondLat_r	epicondLat_l	epicondMed_r	epicondMed_l	malleolusLat_r	malleolusLat_l	malleolusMedv_r	malleolusMedv_l	neck	subclavicle_r	subclavicle_l	sternalnotch	xyphoidprocess	thighwand_r	thighwand_l	upperleg1_r	upperleg1_l	upperleg2_r	upperleg2_l	shankwand_r	shankwand_l	lowerleg1_r	lowerleg1_l	toe_r	toe_l
 	 	X1	Y1	Z1	X2	Y2	Z2	X3	Y3	Z3	X4	Y4	Z4	X5	Y5	Z5	X6	Y6	Z6	X7	Y7	Z7	X8	Y8	Z8	X9	Y9	Z9	X10	Y10	Z10	X11	Y11	Z11	X12	Y12	Z12	X13	Y13	Z13	X14	Y14	Z14	X15	Y15	Z15	X16	Y16	Z16	X17	Y17	Z17	X18	Y18	Z18	X19	Y19	Z19	X20	Y20	Z20	X21	Y21	Z21	X22	Y22	Z22	X23	Y23	Z23	X24	Y24	Z24	X25	Y25	Z25	X26	Y26	Z26	X27	Y27	Z27	X28	Y28	Z28	X29	Y29	Z29	X30	Y30	Z30	X31	Y31	Z31	X32	Y32	Z32	X33	Y33	Z33	X34	Y34	Z34	X35	Y35	Z35	X36	Y36	Z36	X37	Y37	Z37

	1	0.09167	469.206	878.653	-183.351	466.168	858.678	-111.109	456.232	852.906	-261.099	619.466	472.632	-120.770	402.608	438.040	-272.795	650.852	68.838	-151.550	106.586	174.191	-258.856	546.510	943.297	-195.124	554.205	947.767	-78.976	538.815	938.827	-311.271	362.864	981.459	-147.405	363.183	979.599	-233.173	626.650	474.032	-62.730	393.935	440.776	-330.077	594.545	463.069	-177.565	413.304	407.329	-217.072	641.690	65.171	-112.787	88.907	192.464	-288.428	656.787	85.948	-179.253	120.952	175.958	-233.694	358.778	1402.043	-176.409	486.147	1327.915	-117.061	498.215	1337.950	-223.767	474.428	1339.765	-169.140	564.537	1181.067	-185.439	635.440	569.669	13.954	567.820	489.460	-311.146	626.121	640.652	-45.914	498.884	556.178	-327.189	648.813	559.203	-76.760	465.197	474.107	-322.888	657.616	194.172	-18.335	192.666	280.352	-379.225	641.586	164.588	-91.967	164.354	253.538	-307.500	773.507	41.314	-144.294	104.636	52.281	-252.644
	2	0.10000	481.666	879.418	-182.021	479.648	860.298	-109.395	469.709	853.339	-259.334	627.525	472.895	-120.302	427.217	436.832	-273.447	651.465	68.698	-151.797	125.978	179.687	-259.464	560.186	944.055	-194.081	567.877	949.439	-78.057	552.495	938.670	-310.104	376.171	983.209	-147.773	376.629	980.296	-233.525	635.246	474.210	-62.329	418.017	439.708	-330.641	602.960	464.278	-177.701	440.655	405.072	-217.030	642.295	65.134	-113.025	108.811	198.180	-289.201	656.987	85.936	-179.409	139.528	181.498	-234.241	371.547	1402.868	-174.460	499.524	1329.150	-116.014	511.563	1338.834	-222.976	487.500	1340.829	-168.182	578.191	1182.213	-183.983	645.928	570.015	14.392	590.654	491.568	-312.815	636.800	641.129	-45.311	519.532	556.626	-328.099	658.737	559.279	-76.873	488.974	473.842	-323.447	660.732	193.566	-18.354	214.469	283.110	-379.908	644.598	164.458	-91.880	185.771	256.804	-307.996	773.997	40.877	-144.579	119.780	57.108	-254.186
	3	0.10833	494.271	879.882	-181.310	492.890	861.677	-107.931	482.853	853.770	-257.816	635.026	473.004	-119.868	452.076	436.038	-273.880	651.932	68.582	-151.925	146.168	185.314	-259.670	573.524	944.748	-193.200	581.297	950.870	-77.141	565.752	938.625	-309.260	389.209	984.740	-148.023	389.795	980.823	-233.769	643.238	474.229	-61.960	442.680	438.928	-331.041	616.100	466.392	-181.061	467.947	402.483	-217.600	642.701	65.124	-113.159	129.581	203.850	-289.708	657.314	85.690	-179.579	159.357	187.890	-234.256	384.730	1404.048	-172.776	512.658	1329.915	-115.349	524.361	1339.906	-222.669	500.485	1341.837	-167.349	590.704	1182.985	-184.201	655.843	570.140	14.776	613.803	494.378	-313.359	647.159	641.417	-44.576	540.832	557.341	-328.204	670.322	559.089	-78.011	513.495	473.423	-323.813	663.366	192.965	-18.346	237.363	285.664	-380.401	646.627	164.429	-92.098	207.769	261.164	-308.641	774.332	40.577	-144.798	137.970	62.211	-256.279
	4	0.11667	506.495	880.018	-180.203	505.911	862.823	-106.770	495.703	854.262	-256.608	642.074	473.010	-119.509	477.078	435.758	-274.076	652.264	68.500	-151.955	167.240	190.841	-259.559	586.543	945.426	-192.494	594.463	952.067	-76.246	578.624	938.784	-308.742	402.046	986.072	-148.079	402.709	981.233	-233.828	650.713	474.137	-61.662	467.795	438.558	-331.260	617.978	466.016	-176.871	493.299	400.782	-218.868	642.964	65.157	-113.195	151.236	209.285	-289.967	657.925	85.117	-179.793	181.061	194.119	-233.961	397.971	1405.251	-171.181	525.865	1330.388	-114.673	536.257	1340.811	-222.302	513.371	1342.836	-166.645	602.387	1183.429	-185.250	665.230	570.078	15.089	637.183	497.918	-312.868	657.990	641.129	-44.148	562.962	558.673	-327.568	677.109	559.029	-75.919	537.816	473.603	-324.073	665.715	192.366	-18.344	261.165	288.102	-380.691	648.457	164.357	-92.361	230.236	266.083	-309.264	774.558	40.373	-144.949	159.070	67.299	-258.813
